<svg
  xmlns="http://www.w3.org/2000/svg"
  viewBox="0 0 576 512"
  className="w-6 h-6">
  <path
    d="M549.7 124.1c-6.3-23.7-24.9-42.3-48.5-48.7C456.5 64 288 64 288 64s-168.5 0-213.2 11.4c-23.6 6.4-42.2 25-48.5 48.7C16 168.8 16 256 16 256s0 87.2 10.3 131.9c6.3 23.7 24.9 42.3 48.5 48.7C119.5 448 288 448 288 448s168.5 0 213.2-11.4c23.6-6.4 42.2-25 48.5-48.7C560 343.2 560 256 560 256s0-87.2-10.3-131.9zM232 336V176l142 80-142 80z"
    fill="red"
    stroke="pink"
    strokeWidth="8" 
    />
</svg>
